<svg xmlns="http://www.w3.org/2000/svg"><style>:root svg:not(:target){display:none}</style><svg viewBox="0 0 24 24" fill="none" id="arrow"><path d="m9 19 7-7-7-7" stroke="#343A3F" stroke-linecap="round" stroke-linejoin="round"></path></svg><svg viewBox="0 0 24 24" fill="none" id="back-arrow"><path d="m15 19-7-7 7-7" stroke="#999C9F" stroke-linecap="round" stroke-linejoin="round"></path></svg><svg viewBox="0 0 16 16" fill="none" id="language"><path d="M8 1a7 7 0 1 0 0 14 7 7 0 0 0 0-14Zm-.8 1.65c-.78.5-1.32.88-1.44 1.31-.21.75 1.12 1.3 1.49 1.62.67.6.36 2.07-.34 2.72-.7.66-.96 1.32-.88 1.82.1.66.84 1.7 1.23 2.34.4.64-.02.79-.58.46-.4-.24-2.3-.7-2.88-1.12-.57-.42-.75-1.85-.57-2.45.18-.6.4-2.18-.51-2.7a1.7 1.7 0 0 1-.54-.48 6.11 6.11 0 0 1 6.07-4.27c-.4.3-.8.57-1.06.75Zm5.98 6.49a9.57 9.57 0 0 1-1.86-.3c-.71-.4-.48-.93-.18-1.7.3-.79-1.2-1.47-1.2-2.4 0-.91.6-1.52 1.29-1.92a6.1 6.1 0 0 1 2.36 7.63c-.03-.66.03-1.27-.41-1.31Z" fill="#343A3F" fill-opacity=".5"></path></svg><svg viewBox="0 0 16 16" fill="none" id="map"><path d="M8.05 15c.96-1.07 5.3-6.08 5.3-8.7a5.3 5.3 0 1 0-10.6 0c0 2.62 4.34 7.63 5.3 8.7Zm0-10.97a2.27 2.27 0 1 1 0 4.54 2.27 2.27 0 0 1 0-4.54Z" fill="#343A3F" opacity=".5"></path></svg><svg viewBox="0 0 16 16" fill="none" id="phone"><path d="M10.34 1.35h-4.68a1.66 1.66 0 0 0-1.66 1.66v9.98c0 .92.76 1.66 1.66 1.66h4.68a1.66 1.66 0 0 0 1.66-1.66v-9.98a1.66 1.66 0 0 0-1.66-1.66Zm-2.33 12.23a.75.75 0 0 1-.76-.76c0-.42.33-.75.76-.75.42 0 .75.33.75.75 0 .43-.33.76-.75.76Zm3.23-2.31h-6.48v-7.7h6.48v7.7Z" fill="#343A3F" opacity=".5"></path></svg><svg viewBox="0 0 24 24" fill="none" id="plus"><path d="M12 5v14m-7-7h14" stroke="#4888FF" stroke-width="1.5" stroke-linecap="round" stroke-linejoin="round"></path></svg><svg viewBox="0 0 24 24" fill="none" id="smartphone"><path d="M17.97 0h-11.94c-.61 0-1.1.5-1.1 1.1v21.8c0 .6.49 1.1 1.1 1.1h11.94c.61 0 1.1-.5 1.1-1.1v-21.8c0-.6-.49-1.1-1.1-1.1Zm-7.2 1.3h2.45a.23.23 0 1 1 0 .47h-2.44a.23.23 0 0 1 0-.46Zm2.7 20.73h-2.95a.44.44 0 1 1 0-.88h2.96a.44.44 0 1 1 0 .88Zm4.22-2.58h-11.38v-15.7h11.38v15.7Z" fill="#4888FF" fill-opacity=".5"></path></svg><svg viewBox="0 0 16 16" fill="none" id="watch"><path d="M7.5 2a5.5 5.5 0 1 0 .01 11.01 5.5 5.5 0 0 0-.01-11.01Zm2.62 8.34a.46.46 0 0 1-.65 0l-2.3-2.29a.46.46 0 0 1-.13-.32v-2.98a.46.46 0 1 1 .92 0v2.79l2.16 2.16a.46.46 0 0 1 0 .64Z" fill="#343A3F" opacity=".3"></path></svg><svg viewBox="0 0 24 24" fill="none" id="menu_audio"><g clip-path="url(#menu_audio_0)"><path fill-rule="evenodd" clip-rule="evenodd" d="M20.25 4.5a.75.75 0 1 1 0-1.5.75.75 0 0 1 0 1.5Zm-8.25 16.5a9 9 0 1 1 0-18 9 9 0 0 1 0 18Zm8.25 0a.75.75 0 1 1 0-1.5.75.75 0 0 1 0 1.5Zm-16.5 0a.75.75 0 1 1 0-1.5.75.75 0 0 1 0 1.5Zm0-18a.75.75 0 1 1 0 1.5.75.75 0 0 1 0-1.5Zm17.25-3h-18a3 3 0 0 0-3 3v18a3 3 0 0 0 3 3h18a3 3 0 0 0 3-3v-18a3 3 0 0 0-3-3Zm-9 16.5a4.5 4.5 0 1 1 0-9 4.5 4.5 0 0 1 0 9Zm0-12a7.5 7.5 0 1 0 0 15 7.5 7.5 0 0 0 0-15Zm0 4.5a3 3 0 1 0 0 6 3 3 0 0 0 0-6Z" fill="#4888FF" fill-opacity=".5"></path></g><defs><clipPath id="menu_audio_0"><path fill="#fff" d="M0 0h24v24h-24z"></path></clipPath></defs></svg><svg viewBox="0 0 24 24" fill="none" id="menu_brands"><g clip-path="url(#menu_brands_0)" fill="#4888FF" fill-opacity=".5"><path d="M20.32 15.67a9.62 9.62 0 0 1-16.64 0 9.74 9.74 0 0 0-3.68 7.63c0 .38.32.7.7.7h22.6a.7.7 0 0 0 .7-.7 9.74 9.74 0 0 0-3.68-7.63Zm-14.92-14.12h-2.78a.7.7 0 0 0-.7.7c0 1.36.52 2.6 1.38 3.52a8.83 8.83 0 0 1 2.1-4.22Zm16.68.7a.7.7 0 0 0-.7-.7h-2.78a8.83 8.83 0 0 1 2.1 4.22 5.18 5.18 0 0 0 1.38-3.52Zm-17.53 6.52h1.3a2.11 2.11 0 0 1 4.04 0h4.22a2.11 2.11 0 0 1 4.03 0h1.31v-1.32a7.46 7.46 0 0 0-14.9 0v1.32Zm8.95-4.97h1.5a.7.7 0 0 1 0 1.4h-1.5a.7.7 0 0 1 0-1.4Zm-4.5 0h1.5a.7.7 0 0 1 0 1.4h-1.5a.7.7 0 0 1 0-1.4Z"></path><path d="M7.88 8.67a.7.7 0 0 0-.7.7v.8h-2.68a.7.7 0 0 0-.7.7 8.21 8.21 0 0 0 16.4 0 .7.7 0 0 0-.7-.7h-2.67v-.8a.7.7 0 0 0-1.4 0v.8h-6.85v-.8a.7.7 0 0 0-.7-.7Z"></path></g><defs><clipPath id="menu_brands_0"><path fill="#fff" d="M0 0h24v24h-24z"></path></clipPath></defs></svg><svg viewBox="0 0 24 24" fill="none" id="menu_catalog"><rect x="2.182" y="5" width="19.636" height="1.455" rx=".727" fill="#4888FF"></rect><rect x="2.182" y="15.909" width="19.636" height="1.455" rx=".727" fill="#4888FF"></rect><rect x="2.182" y="10.455" width="13.091" height="1.455" rx=".727" fill="#4888FF"></rect></svg><svg viewBox="0 0 24 24" fill="none" id="menu_desktops"><path d="M18.05 20.99h-2.62v-1.26h-6.86v1.26h-2.62a.71.71 0 1 0 0 1.43h12.1a.71.71 0 1 0 0-1.43Zm-18.05-5.34v1.93c0 .4.32.72.71.72h22.58c.39 0 .71-.32.71-.72v-1.93h-24Zm23.29-14.07h-22.58a.71.71 0 0 0-.71.72v11.93h24v-11.93c0-.4-.32-.72-.71-.72Z" fill="#4888FF" fill-opacity=".5"></path></svg><svg viewBox="0 0 24 24" fill="none" id="menu_events"><g clip-path="url(#menu_events_0)" fill="#4888FF" fill-opacity=".5"><path d="M13.44 20.57c.19 0 .36-.14.4-.33l.05-.2c0-.05.02-.09.03-.13l.03-.09c.23-.71.66-1.35 1.25-1.82h-2.54a8.22 8.22 0 0 0-.16 2.17c.01.12.03.25.06.37v.03h.88Zm.36-18.13.06-.27.03-.16.08-.24.05-.15.1-.23.07-.14c.03-.08.08-.15.12-.22l.08-.13.15-.21a1.92 1.92 0 0 1 .3-.36l.05-.05.3-.27v-.01h-12.14a3 3 0 1 0 0 6h12.15a3.86 3.86 0 0 1-1.4-3.56Zm-10.75-.73c-.59 0-1.1.4-1.25.97a.42.42 0 0 1-.75.15.43.43 0 0 1-.08-.37c.25-.94 1.1-1.6 2.08-1.6a.43.43 0 1 1 0 .85Zm3 0h-1.29a.43.43 0 0 1 0-.85h1.29a.43.43 0 1 1 0 .85Zm14.32 20.34c.31-.65.49-1.67-.46-2.84a3.01 3.01 0 0 0-2.3-1.21l-.28.03c-.08 0-.16 0-.24.02-.06 0-.12.03-.18.05a3 3 0 0 0-2.06 1.75l-.02.05c-.04.09-.05.18-.08.26-.02.09-.06.17-.07.26-.12.57-.62.98-1.2 1l-.06.01h-.58a4.2 4.2 0 0 0 1.7 1.86h.01l.57.3.09.02c.15.07.31.12.47.17l.17.05c.19.05.37.08.56.11l.16.02a3.66 3.66 0 0 0 3.8-1.9Z"></path><path d="M4.76 24h9.29a4.83 4.83 0 0 1-2.43-4.29 9.3 9.3 0 0 1 .05-.92c.02-.15.03-.3.06-.44l.04-.3a11.55 11.55 0 0 1 .4-1.43c-.24.22-.43.42-.57.58l-.01.01a16.53 16.53 0 0 0-.29.35l-.02.02-.07.1-.02.02a.64.64 0 0 0-.03.06h-.02v.03h-.01l-.02.03-.03.03a.5.5 0 0 1-.04.05l-.02.01-.03.02a.35.35 0 0 1-.07.04h-.02l-.02.01a.36.36 0 0 1-.1.02h-.04a.3.3 0 0 1-.12-.03h-.01a.33.33 0 0 1-.13-.08.11.11 0 0 1-.03-.04.34.34 0 0 1-.09-.14l-.01-.04-.01-.03v-.15c.2-1.9.84-3.72 1.87-5.32a13.9 13.9 0 0 1 7.42-5.86c.62-1 .96-2.14.99-3.31a3 3 0 1 0-3 3 .43.43 0 1 1 0 .86h-13.15c-.43 1.02-.94 2-1.54 2.94-.26.42-.52.85-.77 1.3a14.97 14.97 0 0 0-2.11 7.76c0 2.64 2.29 5.14 4.71 5.14Zm-1.7-12.53c.03-.1.09-.2.18-.25l.83-.56c.42-.28.96-.28 1.38 0l.38.25c.13.1.3.1.43 0l.38-.25c.42-.28.96-.28 1.38 0l.38.25c.13.1.3.1.43 0l.38-.25c.42-.28.97-.28 1.38 0l.84.56a.42.42 0 0 1 .12.59.43.43 0 0 1-.36.19.4.4 0 0 1-.24-.07l-.83-.56a.37.37 0 0 0-.43 0l-.38.26c-.42.28-.96.28-1.38 0l-.38-.26a.37.37 0 0 0-.43 0l-.38.26c-.42.28-.97.28-1.38 0l-.38-.26a.37.37 0 0 0-.43 0l-.84.56a.42.42 0 0 1-.59-.12.44.44 0 0 1-.06-.34Zm-1.1 2.75.83-.56c.41-.28.96-.28 1.38 0l.38.25c.13.1.3.1.43 0l.38-.25c.41-.28.96-.28 1.38 0l.38.25c.13.1.3.1.43 0l.38-.25c.42-.28.96-.28 1.38 0l.83.56a.43.43 0 0 1-.24.78.4.4 0 0 1-.23-.07l-.84-.56a.37.37 0 0 0-.43 0l-.38.26c-.42.28-.96.28-1.38 0l-.38-.26a.37.37 0 0 0-.43 0l-.38.26c-.42.28-.96.28-1.38 0l-.38-.26a.37.37 0 0 0-.43 0l-.83.56a.43.43 0 1 1-.48-.71Zm-.86 3.42.83-.55c.42-.28.96-.28 1.38 0l.38.25c.13.09.3.09.43 0l.38-.25c.42-.28.96-.28 1.38 0l.38.25c.13.09.3.09.43 0l.38-.25c.42-.28.96-.28 1.38 0l.83.55a.42.42 0 0 1 .16.53.43.43 0 0 1-.4.26.4.4 0 0 1-.23-.07l-.83-.56a.37.37 0 0 0-.43 0l-.38.26c-.42.27-.97.27-1.38 0l-.39-.26a.37.37 0 0 0-.42 0l-.39.26c-.41.27-.96.27-1.38 0l-.38-.26a.37.37 0 0 0-.43 0l-.83.56a.42.42 0 0 1-.6-.12.44.44 0 0 1-.07-.24c0-.14.08-.28.2-.36Z"></path><path d="M11.49 15.28c1.55-2.37 4.9-6.19 11.58-8.8-7.2.6-10.34 5.73-11.58 8.8Z"></path><path d="M23.95 7.08c-7.45 2.75-10.78 7-12.08 9.21 1.61-1.5 3.4-2.8 5.32-3.86a27.5 27.5 0 0 0 6.76-5.35Z"></path></g><defs><clipPath id="menu_events_0"><path fill="#fff" d="M0 0h24v24h-24z"></path></clipPath></defs></svg><svg viewBox="0 0 24 24" fill="none" id="menu_gifts"><g clip-path="url(#menu_gifts_0)" fill="#4888FF" fill-opacity=".5"><path d="M19.56 5.38c1.77 2.23 1.54 5.38 1.54 7.47h2.57c0-2.18.05-2.73-.16-3.65-.46-2.06-1.86-3.55-3.95-3.82Zm-16.32 7.47c0-2.21-.03-2.85.13-3.92a7.56 7.56 0 0 1 1.4-3.55c-1.87.22-3.44 1.57-3.94 3.82-.21.92-.17 1.47-.17 3.65h2.58Zm1.56-3.7c-.15.95-.12 1.5-.12 3.7h1.94v-.75a3.01 3.01 0 0 1 3.01-3.01h5.07a3.01 3.01 0 0 1 3.01 3.01v.75h1.94c0-2.2.03-2.75-.11-3.7-.25-1.7-1.14-3.8-2.8-3.8-9.86 0-9.26-.02-9.52.03-1.19.26-2.12 1.7-2.43 3.77Zm12.74 6.61h4.19c.4 0 .72.32.72.72v5.21c0 .4-.33.73-.72.73h-19.22a.72.72 0 0 1-.72-.73v-5.21c0-.4.32-.72.72-.72h4.29c-.2-.57-.18-.96-.18-1.47h-5.96v8.9c0 .4.32.73.72.73h21.57c.4 0 .72-.32.72-.72v-8.9h-5.96c0 .5.03.89-.17 1.46Z"></path><path d="M3.23 17.2v3.77h17.77v-3.77h-4.5c-.37.3-.83.51-1.32.6 0 1.5-.92 2.24-1.96 2.24h-2.2c-.97 0-1.95-.68-1.95-2.25-.46-.1-.88-.3-1.24-.6h-4.6Z"></path><path d="M14.7 10.53h-5.07c-.86 0-1.56.7-1.56 1.57v2.63c0 .89.7 1.7 1.72 1.7.4 0 .72.31.72.71v.94c0 .29.23.52.52.52h2.19c.28 0 .51-.23.51-.52v-.94c0-.3.19-.55.45-.66.32-.13 1.1.1 1.74-.72.4-.52.35-.98.35-1.47v-2.19c0-.86-.7-1.57-1.57-1.57Zm-3.75 2.79a.72.72 0 0 1-1.44 0v-.85a.72.72 0 0 1 1.44 0v.85Zm1.94 2.24a.72.72 0 0 1-1.44 0c0-.86-.05-1.02.16-1.27a.72.72 0 0 1 1.28.46v.81Zm1.8-1.99a.72.72 0 0 1-1.4-.25v-.85a.72.72 0 0 1 1.45 0c0 .92.01.95-.05 1.1Zm8.59-11.21h-.44v-.43a.72.72 0 1 0-1.44 0v.43h-.44a.72.72 0 0 0 0 1.45h.44v.44a.72.72 0 0 0 1.44 0v-.44h.44a.72.72 0 0 0 0-1.45Zm-6.68.29h.44v.44a.72.72 0 1 0 1.44 0v-.44h.44a.72.72 0 0 0 0-1.44h-.44v-.44a.72.72 0 0 0-1.44 0v.44h-.44a.72.72 0 1 0 0 1.44Zm-11.52 0h.44v.44a.72.72 0 0 0 1.44 0v-.44h.44a.72.72 0 0 0 0-1.44h-.44v-.44a.72.72 0 0 0-1.44 0v.44h-.44a.72.72 0 0 0 0 1.44Zm-3.92 1.15v.45a.72.72 0 0 0 1.44 0v-.44h.44a.72.72 0 0 0 0-1.45h-.44v-.43a.72.72 0 0 0-1.44 0v.43h-.44a.72.72 0 1 0 0 1.45h.44Z"></path></g><defs><clipPath id="menu_gifts_0"><path fill="#fff" d="M0 0h24v24h-24z"></path></clipPath></defs></svg><svg viewBox="0 0 24 24" fill="none" id="menu_hot"><g clip-path="url(#menu_hot_0)" fill="#4888FF" fill-opacity=".5"><path d="M20.93 7.96a.7.7 0 0 0-.65-.43h-4.88l3.25-6.51a.7.7 0 0 0-.62-1.02h-9.8a.7.7 0 0 0-.65.44l-4.52 11.3a.7.7 0 0 0 .66.96h5.74l-4.14 10.34a.7.7 0 0 0 1.16.74l14.31-15.06c.2-.2.25-.5.14-.76Z"></path><path d="M20.93 7.96a.7.7 0 0 0-.65-.43h-4.88l3.25-6.51a.7.7 0 0 0-.62-1.02h-6.03v17.98l8.8-9.26a.7.7 0 0 0 .13-.76Z"></path></g><defs><clipPath id="menu_hot_0"><path fill="#fff" d="M0 0h24v24h-24z"></path></clipPath></defs></svg><svg viewBox="0 0 24 24" fill="none" id="menu_laptops"><path d="M21.32 16.66h-.01v-12.29h-18.64v12.3h.01l-2.68 2.1v.86h24v-.86l-2.68-2.1Zm-16.95-11.05 15.47.02-.12 9.8-15.38.07.03-9.89Zm6.24 13.16.38-.54h2.44l.45.54h-3.27Zm-8.04-1.03.89-.62h17.23l1.22.69-19.34-.07Z" fill="#4888FF" fill-opacity=".5"></path></svg><svg viewBox="0 0 24 24" fill="none" id="menu_new"><g clip-path="url(#menu_new_0)"><path d="m23.85 13.07-1.77-2.8a1 1 0 0 1-.13-.75l.7-3.23a1 1 0 0 0-.67-1.16l-3.15-1.01a1 1 0 0 1-.58-.5l-1.54-2.92a1 1 0 0 0-1.27-.46l-3.06 1.25a1 1 0 0 1-.76 0l-3.06-1.25a1 1 0 0 0-1.27.46l-1.54 2.93a1 1 0 0 1-.58.49l-3.15 1a1 1 0 0 0-.67 1.17l.7 3.23a1 1 0 0 1-.13.75l-1.77 2.8a1 1 0 0 0 .24 1.32l2.61 2.03c.21.16.35.4.38.66l.45 3.27a1 1 0 0 0 1.03.87l3.3-.13a1 1 0 0 1 .72.26l2.45 2.22a1 1 0 0 0 1.34 0l2.45-2.22a1 1 0 0 1 .71-.26l3.31.13a1 1 0 0 0 1.03-.87l.45-3.27a1 1 0 0 1 .38-.66l2.61-2.03a1 1 0 0 0 .24-1.32Zm-14.63 2.93-2.91-2.04 1.2 2.78-.8.34-1.84-4.26.83-.36 2.98 2.1-1.23-2.85.8-.35 1.84 4.26-.87.38Zm1.78-.77-1.84-4.26 3.16-1.37.31.72-2.3 1 .4.94 2.15-.92.3.72-2.13.92.5 1.16 2.38-1.03.31.72-3.24 1.4Zm7.2-3.1-2.22-2.83.53 3.55-.93.4-2.86-3.82.88-.38 1.9 2.65-.48-3.26 1.03-.44 2.03 2.65-.63-3.26.86-.37.8 4.7-.9.4Z" fill="#4888FF" fill-opacity=".5"></path></g><defs><clipPath id="menu_new_0"><path fill="#fff" d="M0 0h24v24h-24z"></path></clipPath></defs></svg><svg viewBox="0 0 24 24" fill="none" id="menu_promotion"><path d="M15.48 18.61c0-1.28-.81-2.03-2.36-3.34-.35-.3-.73-.62-1.12-.98-.44.41-.87.77-1.25 1.1-1.55 1.31-2.23 1.95-2.23 3.22a3.48 3.48 0 1 0 6.96 0Z" fill="#4888FF" fill-opacity=".5"></path><path d="M16.4 4.04a59.73 59.73 0 0 1-3.69-3.33l-.71-.71-.7.71c-2.25 2.26-3.32 5.74-3.78 7.82a6.04 6.04 0 0 1-.78-1.78l-.43-1.64-1.23 1.16c-2.16 2.02-3.6 4.04-3.6 7.26a10.42 10.42 0 0 0 9.52 10.47 5.5 5.5 0 0 1-4.48-5.39c0-2.25 1.35-3.4 2.92-4.74.56-.48 1.2-1.02 1.85-1.67l.71-.7.7.7c.58.58 1.16 1.07 1.72 1.54 1.57 1.34 3.06 2.6 3.06 4.87a5.49 5.49 0 0 1-4.45 5.38 10.51 10.51 0 0 0 9.49-10.46c0-4.3-2.83-6.71-6.11-9.5Z" fill="#4888FF" fill-opacity=".5"></path></svg></svg>